<mxfile host="app.diagrams.net" modified="2023-06-19T11:01:10.352Z" agent="Mozilla/5.0 (Windows NT 10.0; Win64; x64) AppleWebKit/537.36 (KHTML, like Gecko) Chrome/114.0.0.0 Safari/537.36" etag="ijxr-6fUQIzUOUG1nSHT" version="21.3.8" type="device" pages="3">
  <diagram name="single-replica" id="fR_4DEYkgUkf_M3soYQo">
    <mxGraphModel dx="2390" dy="1260" grid="1" gridSize="10" guides="1" tooltips="1" connect="1" arrows="1" fold="1" page="1" pageScale="1" pageWidth="850" pageHeight="1100" math="0" shadow="0">
      <root>
        <mxCell id="0" />
        <mxCell id="1" parent="0" />
        <mxCell id="mAfOacy3YLwG3TaZKsIw-1" value="AWS Account" style="points=[[0,0],[0.25,0],[0.5,0],[0.75,0],[1,0],[1,0.25],[1,0.5],[1,0.75],[1,1],[0.75,1],[0.5,1],[0.25,1],[0,1],[0,0.75],[0,0.5],[0,0.25]];outlineConnect=0;gradientColor=none;html=1;whiteSpace=wrap;fontSize=12;fontStyle=0;container=1;pointerEvents=0;collapsible=0;recursiveResize=0;shape=mxgraph.aws4.group;grIcon=mxgraph.aws4.group_aws_cloud;strokeColor=#232F3E;fillColor=none;verticalAlign=top;align=left;spacingLeft=30;fontColor=#232F3E;dashed=0;" vertex="1" parent="1">
          <mxGeometry x="30" y="40" width="510" height="310" as="geometry" />
        </mxCell>
        <mxCell id="mAfOacy3YLwG3TaZKsIw-2" value="eu-central-1" style="points=[[0,0],[0.25,0],[0.5,0],[0.75,0],[1,0],[1,0.25],[1,0.5],[1,0.75],[1,1],[0.75,1],[0.5,1],[0.25,1],[0,1],[0,0.75],[0,0.5],[0,0.25]];outlineConnect=0;gradientColor=none;html=1;whiteSpace=wrap;fontSize=12;fontStyle=0;container=1;pointerEvents=0;collapsible=0;recursiveResize=0;shape=mxgraph.aws4.group;grIcon=mxgraph.aws4.group_region;strokeColor=#147EBA;fillColor=none;verticalAlign=top;align=left;spacingLeft=30;fontColor=#147EBA;dashed=1;" vertex="1" parent="mAfOacy3YLwG3TaZKsIw-1">
          <mxGeometry x="30" y="49" width="450" height="240" as="geometry" />
        </mxCell>
        <mxCell id="mAfOacy3YLwG3TaZKsIw-3" value="eu-central-1a" style="fillColor=none;strokeColor=#147EBA;dashed=1;verticalAlign=top;fontStyle=0;fontColor=#147EBA;whiteSpace=wrap;html=1;" vertex="1" parent="mAfOacy3YLwG3TaZKsIw-2">
          <mxGeometry x="30" y="40" width="390" height="170" as="geometry" />
        </mxCell>
        <mxCell id="mAfOacy3YLwG3TaZKsIw-4" style="edgeStyle=orthogonalEdgeStyle;rounded=0;orthogonalLoop=1;jettySize=auto;html=1;exitX=0.5;exitY=1;exitDx=0;exitDy=0;" edge="1" parent="mAfOacy3YLwG3TaZKsIw-2" source="mAfOacy3YLwG3TaZKsIw-3" target="mAfOacy3YLwG3TaZKsIw-3">
          <mxGeometry relative="1" as="geometry" />
        </mxCell>
        <mxCell id="mAfOacy3YLwG3TaZKsIw-12" value="Data Sync" style="edgeStyle=orthogonalEdgeStyle;rounded=0;orthogonalLoop=1;jettySize=auto;html=1;" edge="1" parent="mAfOacy3YLwG3TaZKsIw-2" source="mAfOacy3YLwG3TaZKsIw-10" target="mAfOacy3YLwG3TaZKsIw-11">
          <mxGeometry x="-0.1252" relative="1" as="geometry">
            <mxPoint as="offset" />
          </mxGeometry>
        </mxCell>
        <mxCell id="mAfOacy3YLwG3TaZKsIw-10" value="Redis&lt;br&gt;Primary Node" style="sketch=0;outlineConnect=0;fontColor=#232F3E;gradientColor=none;fillColor=#2E27AD;strokeColor=none;dashed=0;verticalLabelPosition=bottom;verticalAlign=top;align=center;html=1;fontSize=12;fontStyle=0;aspect=fixed;pointerEvents=1;shape=mxgraph.aws4.elasticache_for_redis;" vertex="1" parent="mAfOacy3YLwG3TaZKsIw-2">
          <mxGeometry x="60" y="80.5" width="78" height="69" as="geometry" />
        </mxCell>
        <mxCell id="mAfOacy3YLwG3TaZKsIw-11" value="Redis&lt;br&gt;Read Replica" style="sketch=0;outlineConnect=0;fontColor=#232F3E;gradientColor=none;fillColor=#6666FF;strokeColor=none;dashed=0;verticalLabelPosition=bottom;verticalAlign=top;align=center;html=1;fontSize=12;fontStyle=0;aspect=fixed;pointerEvents=1;shape=mxgraph.aws4.elasticache_for_redis;" vertex="1" parent="mAfOacy3YLwG3TaZKsIw-2">
          <mxGeometry x="326" y="80.5" width="78" height="69" as="geometry" />
        </mxCell>
      </root>
    </mxGraphModel>
  </diagram>
  <diagram id="sxjtNazLW0q08Y3FRpxE" name="3-azs">
    <mxGraphModel dx="1793" dy="945" grid="1" gridSize="10" guides="1" tooltips="1" connect="1" arrows="1" fold="1" page="1" pageScale="1" pageWidth="850" pageHeight="1100" math="0" shadow="0">
      <root>
        <mxCell id="0" />
        <mxCell id="1" parent="0" />
        <mxCell id="-YCU1E4OxNIoEOLkfOz--1" value="AWS Account" style="points=[[0,0],[0.25,0],[0.5,0],[0.75,0],[1,0],[1,0.25],[1,0.5],[1,0.75],[1,1],[0.75,1],[0.5,1],[0.25,1],[0,1],[0,0.75],[0,0.5],[0,0.25]];outlineConnect=0;gradientColor=none;html=1;whiteSpace=wrap;fontSize=12;fontStyle=0;container=1;pointerEvents=0;collapsible=0;recursiveResize=0;shape=mxgraph.aws4.group;grIcon=mxgraph.aws4.group_aws_cloud;strokeColor=#232F3E;fillColor=none;verticalAlign=top;align=left;spacingLeft=30;fontColor=#232F3E;dashed=0;" vertex="1" parent="1">
          <mxGeometry x="40" y="30" width="690" height="910" as="geometry" />
        </mxCell>
        <mxCell id="-YCU1E4OxNIoEOLkfOz--2" value="eu-central-1" style="points=[[0,0],[0.25,0],[0.5,0],[0.75,0],[1,0],[1,0.25],[1,0.5],[1,0.75],[1,1],[0.75,1],[0.5,1],[0.25,1],[0,1],[0,0.75],[0,0.5],[0,0.25]];outlineConnect=0;gradientColor=none;html=1;whiteSpace=wrap;fontSize=12;fontStyle=0;container=1;pointerEvents=0;collapsible=0;recursiveResize=0;shape=mxgraph.aws4.group;grIcon=mxgraph.aws4.group_region;strokeColor=#147EBA;fillColor=none;verticalAlign=top;align=left;spacingLeft=30;fontColor=#147EBA;dashed=1;" vertex="1" parent="-YCU1E4OxNIoEOLkfOz--1">
          <mxGeometry x="30" y="40" width="620" height="850" as="geometry" />
        </mxCell>
        <mxCell id="-YCU1E4OxNIoEOLkfOz--3" value="eu-central-1a" style="fillColor=none;strokeColor=#147EBA;dashed=1;verticalAlign=top;fontStyle=0;fontColor=#147EBA;whiteSpace=wrap;html=1;" vertex="1" parent="-YCU1E4OxNIoEOLkfOz--2">
          <mxGeometry x="30" y="40" width="550" height="250" as="geometry" />
        </mxCell>
        <mxCell id="-YCU1E4OxNIoEOLkfOz--4" style="edgeStyle=orthogonalEdgeStyle;rounded=0;orthogonalLoop=1;jettySize=auto;html=1;exitX=0.5;exitY=1;exitDx=0;exitDy=0;" edge="1" parent="-YCU1E4OxNIoEOLkfOz--2" source="-YCU1E4OxNIoEOLkfOz--3" target="-YCU1E4OxNIoEOLkfOz--3">
          <mxGeometry relative="1" as="geometry" />
        </mxCell>
        <mxCell id="-YCU1E4OxNIoEOLkfOz--5" value="eu-central-1b" style="fillColor=none;strokeColor=#147EBA;dashed=1;verticalAlign=top;fontStyle=0;fontColor=#147EBA;whiteSpace=wrap;html=1;" vertex="1" parent="-YCU1E4OxNIoEOLkfOz--2">
          <mxGeometry x="30" y="310" width="550" height="250" as="geometry" />
        </mxCell>
        <mxCell id="-YCU1E4OxNIoEOLkfOz--6" style="edgeStyle=orthogonalEdgeStyle;rounded=0;orthogonalLoop=1;jettySize=auto;html=1;" edge="1" parent="-YCU1E4OxNIoEOLkfOz--2" source="-YCU1E4OxNIoEOLkfOz--8" target="-YCU1E4OxNIoEOLkfOz--10">
          <mxGeometry relative="1" as="geometry" />
        </mxCell>
        <mxCell id="-YCU1E4OxNIoEOLkfOz--7" style="edgeStyle=orthogonalEdgeStyle;rounded=0;orthogonalLoop=1;jettySize=auto;html=1;" edge="1" parent="-YCU1E4OxNIoEOLkfOz--2" source="-YCU1E4OxNIoEOLkfOz--8" target="-YCU1E4OxNIoEOLkfOz--9">
          <mxGeometry relative="1" as="geometry" />
        </mxCell>
        <mxCell id="-YCU1E4OxNIoEOLkfOz--20" style="edgeStyle=orthogonalEdgeStyle;rounded=0;orthogonalLoop=1;jettySize=auto;html=1;entryX=0;entryY=0.5;entryDx=0;entryDy=0;entryPerimeter=0;" edge="1" parent="-YCU1E4OxNIoEOLkfOz--2" source="-YCU1E4OxNIoEOLkfOz--8" target="-YCU1E4OxNIoEOLkfOz--11">
          <mxGeometry relative="1" as="geometry" />
        </mxCell>
        <mxCell id="-YCU1E4OxNIoEOLkfOz--21" style="edgeStyle=orthogonalEdgeStyle;rounded=0;orthogonalLoop=1;jettySize=auto;html=1;entryX=0;entryY=0.5;entryDx=0;entryDy=0;entryPerimeter=0;" edge="1" parent="-YCU1E4OxNIoEOLkfOz--2" source="-YCU1E4OxNIoEOLkfOz--8" target="-YCU1E4OxNIoEOLkfOz--12">
          <mxGeometry relative="1" as="geometry" />
        </mxCell>
        <mxCell id="-YCU1E4OxNIoEOLkfOz--8" value="Redis&lt;br&gt;Primary Node" style="sketch=0;outlineConnect=0;fontColor=#232F3E;gradientColor=none;fillColor=#2E27AD;strokeColor=none;dashed=0;verticalLabelPosition=bottom;verticalAlign=top;align=center;html=1;fontSize=12;fontStyle=0;aspect=fixed;pointerEvents=1;shape=mxgraph.aws4.elasticache_for_redis;" vertex="1" parent="-YCU1E4OxNIoEOLkfOz--2">
          <mxGeometry x="70" y="130.5" width="78" height="69" as="geometry" />
        </mxCell>
        <mxCell id="-YCU1E4OxNIoEOLkfOz--9" value="Redis&lt;br&gt;Read Replica" style="sketch=0;outlineConnect=0;fontColor=#232F3E;gradientColor=none;fillColor=#6666FF;strokeColor=none;dashed=0;verticalLabelPosition=bottom;verticalAlign=top;align=center;html=1;fontSize=12;fontStyle=0;aspect=fixed;pointerEvents=1;shape=mxgraph.aws4.elasticache_for_redis;" vertex="1" parent="-YCU1E4OxNIoEOLkfOz--2">
          <mxGeometry x="380" y="180" width="78" height="69" as="geometry" />
        </mxCell>
        <mxCell id="-YCU1E4OxNIoEOLkfOz--10" value="Redis&lt;br&gt;Read Replica" style="sketch=0;outlineConnect=0;fontColor=#232F3E;gradientColor=none;fillColor=#6666FF;strokeColor=none;dashed=0;verticalLabelPosition=bottom;verticalAlign=top;align=center;html=1;fontSize=12;fontStyle=0;aspect=fixed;pointerEvents=1;shape=mxgraph.aws4.elasticache_for_redis;" vertex="1" parent="-YCU1E4OxNIoEOLkfOz--2">
          <mxGeometry x="380" y="61.5" width="78" height="69" as="geometry" />
        </mxCell>
        <mxCell id="-YCU1E4OxNIoEOLkfOz--11" value="Redis&lt;br&gt;Read Replica" style="sketch=0;outlineConnect=0;fontColor=#232F3E;gradientColor=none;fillColor=#6666FF;strokeColor=none;dashed=0;verticalLabelPosition=bottom;verticalAlign=top;align=center;html=1;fontSize=12;fontStyle=0;aspect=fixed;pointerEvents=1;shape=mxgraph.aws4.elasticache_for_redis;points=[[0,0.5,0,0,0]];" vertex="1" parent="-YCU1E4OxNIoEOLkfOz--2">
          <mxGeometry x="380" y="330" width="78" height="69" as="geometry" />
        </mxCell>
        <mxCell id="-YCU1E4OxNIoEOLkfOz--12" value="Redis&lt;br&gt;Read Replica" style="sketch=0;outlineConnect=0;fontColor=#232F3E;gradientColor=none;fillColor=#6666FF;strokeColor=none;dashed=0;verticalLabelPosition=bottom;verticalAlign=top;align=center;html=1;fontSize=12;fontStyle=0;aspect=fixed;pointerEvents=1;shape=mxgraph.aws4.elasticache_for_redis;points=[[0,0.5,0,0,0]];" vertex="1" parent="-YCU1E4OxNIoEOLkfOz--2">
          <mxGeometry x="380" y="450" width="78" height="69" as="geometry" />
        </mxCell>
        <mxCell id="-YCU1E4OxNIoEOLkfOz--13" value="eu-central-1c" style="fillColor=none;strokeColor=#147EBA;dashed=1;verticalAlign=top;fontStyle=0;fontColor=#147EBA;whiteSpace=wrap;html=1;" vertex="1" parent="1">
          <mxGeometry x="100" y="640" width="550" height="250" as="geometry" />
        </mxCell>
        <mxCell id="-YCU1E4OxNIoEOLkfOz--14" value="Redis&lt;br&gt;Read Replica" style="sketch=0;outlineConnect=0;fontColor=#232F3E;gradientColor=none;fillColor=#6666FF;strokeColor=none;dashed=0;verticalLabelPosition=bottom;verticalAlign=top;align=center;html=1;fontSize=12;fontStyle=0;aspect=fixed;pointerEvents=1;shape=mxgraph.aws4.elasticache_for_redis;points=[[0,0.5,0,0,0]];" vertex="1" parent="1">
          <mxGeometry x="450" y="660" width="78" height="69" as="geometry" />
        </mxCell>
        <mxCell id="-YCU1E4OxNIoEOLkfOz--15" value="Redis&lt;br&gt;Read Replica" style="sketch=0;outlineConnect=0;fontColor=#232F3E;gradientColor=none;fillColor=#6666FF;strokeColor=none;dashed=0;verticalLabelPosition=bottom;verticalAlign=top;align=center;html=1;fontSize=12;fontStyle=0;aspect=fixed;pointerEvents=1;shape=mxgraph.aws4.elasticache_for_redis;points=[[0,0.5,0,0,0]];" vertex="1" parent="1">
          <mxGeometry x="450" y="780" width="78" height="69" as="geometry" />
        </mxCell>
        <mxCell id="-YCU1E4OxNIoEOLkfOz--22" style="edgeStyle=orthogonalEdgeStyle;rounded=0;orthogonalLoop=1;jettySize=auto;html=1;entryX=0;entryY=0.5;entryDx=0;entryDy=0;entryPerimeter=0;" edge="1" parent="1" source="-YCU1E4OxNIoEOLkfOz--8" target="-YCU1E4OxNIoEOLkfOz--14">
          <mxGeometry relative="1" as="geometry" />
        </mxCell>
        <mxCell id="-YCU1E4OxNIoEOLkfOz--23" style="edgeStyle=orthogonalEdgeStyle;rounded=0;orthogonalLoop=1;jettySize=auto;html=1;entryX=0;entryY=0.5;entryDx=0;entryDy=0;entryPerimeter=0;" edge="1" parent="1" source="-YCU1E4OxNIoEOLkfOz--8" target="-YCU1E4OxNIoEOLkfOz--15">
          <mxGeometry relative="1" as="geometry" />
        </mxCell>
        <mxCell id="-YCU1E4OxNIoEOLkfOz--24" value="Data sync" style="edgeLabel;html=1;align=center;verticalAlign=middle;resizable=0;points=[];" vertex="1" connectable="0" parent="-YCU1E4OxNIoEOLkfOz--23">
          <mxGeometry x="-0.8672" y="1" relative="1" as="geometry">
            <mxPoint as="offset" />
          </mxGeometry>
        </mxCell>
      </root>
    </mxGraphModel>
  </diagram>
  <diagram id="5tYGZjP173d9C_KzAyL_" name="backups">
    <mxGraphModel dx="1434" dy="756" grid="1" gridSize="10" guides="1" tooltips="1" connect="1" arrows="1" fold="1" page="1" pageScale="1" pageWidth="850" pageHeight="1100" math="0" shadow="0">
      <root>
        <mxCell id="0" />
        <mxCell id="1" parent="0" />
        <mxCell id="Rm7h0ZKAGyYPG9iMS9iA-1" value="AWS Account" style="points=[[0,0],[0.25,0],[0.5,0],[0.75,0],[1,0],[1,0.25],[1,0.5],[1,0.75],[1,1],[0.75,1],[0.5,1],[0.25,1],[0,1],[0,0.75],[0,0.5],[0,0.25]];outlineConnect=0;gradientColor=none;html=1;whiteSpace=wrap;fontSize=12;fontStyle=0;container=1;pointerEvents=0;collapsible=0;recursiveResize=0;shape=mxgraph.aws4.group;grIcon=mxgraph.aws4.group_aws_cloud;strokeColor=#232F3E;fillColor=none;verticalAlign=top;align=left;spacingLeft=30;fontColor=#232F3E;dashed=0;" vertex="1" parent="1">
          <mxGeometry x="30" y="40" width="510" height="600" as="geometry" />
        </mxCell>
        <mxCell id="Rm7h0ZKAGyYPG9iMS9iA-2" value="eu-central-1" style="points=[[0,0],[0.25,0],[0.5,0],[0.75,0],[1,0],[1,0.25],[1,0.5],[1,0.75],[1,1],[0.75,1],[0.5,1],[0.25,1],[0,1],[0,0.75],[0,0.5],[0,0.25]];outlineConnect=0;gradientColor=none;html=1;whiteSpace=wrap;fontSize=12;fontStyle=0;container=1;pointerEvents=0;collapsible=0;recursiveResize=0;shape=mxgraph.aws4.group;grIcon=mxgraph.aws4.group_region;strokeColor=#147EBA;fillColor=none;verticalAlign=top;align=left;spacingLeft=30;fontColor=#147EBA;dashed=1;" vertex="1" parent="Rm7h0ZKAGyYPG9iMS9iA-1">
          <mxGeometry x="30" y="49" width="450" height="521" as="geometry" />
        </mxCell>
        <mxCell id="Rm7h0ZKAGyYPG9iMS9iA-3" value="eu-central-1a" style="fillColor=none;strokeColor=#147EBA;dashed=1;verticalAlign=top;fontStyle=0;fontColor=#147EBA;whiteSpace=wrap;html=1;" vertex="1" parent="Rm7h0ZKAGyYPG9iMS9iA-2">
          <mxGeometry x="30" y="40" width="390" height="290" as="geometry" />
        </mxCell>
        <mxCell id="Rm7h0ZKAGyYPG9iMS9iA-4" style="edgeStyle=orthogonalEdgeStyle;rounded=0;orthogonalLoop=1;jettySize=auto;html=1;exitX=0.5;exitY=1;exitDx=0;exitDy=0;" edge="1" parent="Rm7h0ZKAGyYPG9iMS9iA-2" source="Rm7h0ZKAGyYPG9iMS9iA-3" target="Rm7h0ZKAGyYPG9iMS9iA-3">
          <mxGeometry relative="1" as="geometry" />
        </mxCell>
        <mxCell id="Rm7h0ZKAGyYPG9iMS9iA-5" value="Data Sync" style="edgeStyle=orthogonalEdgeStyle;rounded=0;orthogonalLoop=1;jettySize=auto;html=1;entryX=0;entryY=0.5;entryDx=0;entryDy=0;entryPerimeter=0;" edge="1" parent="Rm7h0ZKAGyYPG9iMS9iA-2" source="Rm7h0ZKAGyYPG9iMS9iA-6" target="Rm7h0ZKAGyYPG9iMS9iA-7">
          <mxGeometry x="-0.5883" relative="1" as="geometry">
            <mxPoint as="offset" />
          </mxGeometry>
        </mxCell>
        <mxCell id="Rm7h0ZKAGyYPG9iMS9iA-10" style="edgeStyle=orthogonalEdgeStyle;rounded=0;orthogonalLoop=1;jettySize=auto;html=1;entryX=0;entryY=0.5;entryDx=0;entryDy=0;entryPerimeter=0;" edge="1" parent="Rm7h0ZKAGyYPG9iMS9iA-2" source="Rm7h0ZKAGyYPG9iMS9iA-6" target="Rm7h0ZKAGyYPG9iMS9iA-8">
          <mxGeometry relative="1" as="geometry" />
        </mxCell>
        <mxCell id="Rm7h0ZKAGyYPG9iMS9iA-12" style="edgeStyle=orthogonalEdgeStyle;rounded=0;orthogonalLoop=1;jettySize=auto;html=1;" edge="1" parent="Rm7h0ZKAGyYPG9iMS9iA-2" source="Rm7h0ZKAGyYPG9iMS9iA-6" target="Rm7h0ZKAGyYPG9iMS9iA-11">
          <mxGeometry relative="1" as="geometry" />
        </mxCell>
        <mxCell id="Rm7h0ZKAGyYPG9iMS9iA-13" value="Process&lt;br&gt;synching&lt;br&gt;the storages and&lt;br&gt;creating a snapshot" style="edgeLabel;html=1;align=center;verticalAlign=middle;resizable=0;points=[];" vertex="1" connectable="0" parent="Rm7h0ZKAGyYPG9iMS9iA-12">
          <mxGeometry x="-0.1216" relative="1" as="geometry">
            <mxPoint y="1" as="offset" />
          </mxGeometry>
        </mxCell>
        <mxCell id="Rm7h0ZKAGyYPG9iMS9iA-6" value="Redis&lt;br&gt;Primary Node" style="sketch=0;outlineConnect=0;fontColor=#232F3E;gradientColor=none;fillColor=#2E27AD;strokeColor=none;dashed=0;verticalLabelPosition=bottom;verticalAlign=top;align=center;html=1;fontSize=12;fontStyle=0;aspect=fixed;pointerEvents=1;shape=mxgraph.aws4.elasticache_for_redis;" vertex="1" parent="Rm7h0ZKAGyYPG9iMS9iA-2">
          <mxGeometry x="60" y="150.5" width="78" height="69" as="geometry" />
        </mxCell>
        <mxCell id="Rm7h0ZKAGyYPG9iMS9iA-7" value="Redis&lt;br&gt;Read Replica" style="sketch=0;outlineConnect=0;fontColor=#232F3E;gradientColor=none;fillColor=#6666FF;strokeColor=none;dashed=0;verticalLabelPosition=bottom;verticalAlign=top;align=center;html=1;fontSize=12;fontStyle=0;aspect=fixed;pointerEvents=1;shape=mxgraph.aws4.elasticache_for_redis;points=[[0,0.5,0,0,0]];" vertex="1" parent="Rm7h0ZKAGyYPG9iMS9iA-2">
          <mxGeometry x="326" y="80.5" width="78" height="69" as="geometry" />
        </mxCell>
        <mxCell id="Rm7h0ZKAGyYPG9iMS9iA-8" value="Redis&lt;br&gt;Read Replica" style="sketch=0;outlineConnect=0;fontColor=#232F3E;gradientColor=none;fillColor=#6666FF;strokeColor=none;dashed=0;verticalLabelPosition=bottom;verticalAlign=top;align=center;html=1;fontSize=12;fontStyle=0;aspect=fixed;pointerEvents=1;shape=mxgraph.aws4.elasticache_for_redis;points=[[0,0.5,0,0,0]];" vertex="1" parent="Rm7h0ZKAGyYPG9iMS9iA-2">
          <mxGeometry x="326" y="201" width="78" height="69" as="geometry" />
        </mxCell>
        <mxCell id="Rm7h0ZKAGyYPG9iMS9iA-11" value="S3 Bucket" style="sketch=0;outlineConnect=0;fontColor=#232F3E;gradientColor=none;fillColor=#3F8624;strokeColor=none;dashed=0;verticalLabelPosition=bottom;verticalAlign=top;align=center;html=1;fontSize=12;fontStyle=0;aspect=fixed;pointerEvents=1;shape=mxgraph.aws4.bucket;" vertex="1" parent="Rm7h0ZKAGyYPG9iMS9iA-2">
          <mxGeometry x="62" y="391" width="75" height="78" as="geometry" />
        </mxCell>
      </root>
    </mxGraphModel>
  </diagram>
</mxfile>
